<svg width="159" height="160" viewBox="0 0 159 160" fill="none" xmlns="http://www.w3.org/2000/svg">
<rect y="0.796875" width="159" height="159" rx="79.5" fill="#F9CF64"/>
<path d="M56.6937 100.438C47.2643 96.6661 40.2545 94.83 34.98 94.3365M78.7008 105.518C86.6948 105.442 92.2387 102.407 96.8868 97.7583C104.926 89.7196 108.141 79.0015 99.5664 57.5651C95.6629 47.8063 93.8326 40.6391 93.4182 35.3049" stroke="#0073BB" stroke-width="7" stroke-linecap="round" stroke-linejoin="round"/>
<path d="M99.5684 57.5634C110.838 62.0712 118.651 63.8141 124.177 63.8046M62.9369 125.044C62.9464 119.518 61.2034 111.705 56.6957 100.436C48.1212 78.9998 51.3366 68.2815 59.3752 60.2429C64.2415 55.3766 70.0898 52.2778 78.7033 52.4921" stroke="#0073BB" stroke-width="7" stroke-linecap="round" stroke-linejoin="round"/>
<path d="M59.399 60.2693L96.8802 97.7505" stroke="#0073BB" stroke-width="7" stroke-linecap="round" stroke-linejoin="round"/>
</svg>
