<svg width="46" height="48" viewBox="0 0 46 48" fill="none" xmlns="http://www.w3.org/2000/svg">
<g filter="url(#filter0_d_94_276)">
<path d="M25.5 2.5C25.5 1.11929 24.3807 -6.03528e-08 23 0C21.6193 6.03528e-08 20.5 1.11929 20.5 2.5L25.5 2.5ZM21.2322 39.2678C22.2085 40.2441 23.7915 40.2441 24.7678 39.2678L40.6777 23.3579C41.654 22.3816 41.654 20.7986 40.6777 19.8223C39.7014 18.846 38.1184 18.846 37.1421 19.8223L23 33.9645L8.85787 19.8223C7.88155 18.846 6.29864 18.846 5.32233 19.8223C4.34602 20.7986 4.34602 22.3816 5.32233 23.3579L21.2322 39.2678ZM20.5 2.5L20.5 37.5L25.5 37.5L25.5 2.5L20.5 2.5Z" fill="#FD002E"/>
</g>
<defs>
<filter id="filter0_d_94_276" x="0.590088" y="0" width="44.8198" height="48" filterUnits="userSpaceOnUse" color-interpolation-filters="sRGB">
<feFlood flood-opacity="0" result="BackgroundImageFix"/>
<feColorMatrix in="SourceAlpha" type="matrix" values="0 0 0 0 0 0 0 0 0 0 0 0 0 0 0 0 0 0 127 0" result="hardAlpha"/>
<feOffset dy="4"/>
<feGaussianBlur stdDeviation="2"/>
<feComposite in2="hardAlpha" operator="out"/>
<feColorMatrix type="matrix" values="0 0 0 0 0 0 0 0 0 0 0 0 0 0 0 0 0 0 0.25 0"/>
<feBlend mode="normal" in2="BackgroundImageFix" result="effect1_dropShadow_94_276"/>
<feBlend mode="normal" in="SourceGraphic" in2="effect1_dropShadow_94_276" result="shape"/>
</filter>
</defs>
</svg>
