<svg width="16" height="125" viewBox="0 0 16 125" fill="none" xmlns="http://www.w3.org/2000/svg">
<path d="M9.5 2C9.5 1.17157 8.82843 0.5 8 0.5C7.17157 0.5 6.5 1.17157 6.5 2L9.5 2ZM8 109C3.58172 109 -4.83368e-06 112.582 -5.02681e-06 117C-5.21994e-06 121.418 3.58172 125 7.99999 125C12.4183 125 16 121.418 16 117C16 112.582 12.4183 109 8 109ZM6.5 2L6.5 4.875L9.5 4.875L9.5 2L6.5 2ZM6.5 16.375L6.5 33.625L9.5 33.625L9.5 16.375L6.5 16.375ZM6.5 56.625L6.5 62.375L9.5 62.375L9.5 56.625L6.5 56.625ZM6.5 73.875L6.5 91.125L9.5 91.125L9.5 73.875L6.5 73.875ZM6.5 114.125L6.49999 117L9.49999 117L9.5 114.125L6.5 114.125Z" fill="url(#paint0_linear_91_265)"/>
<defs>
<linearGradient id="paint0_linear_91_265" x1="7.49999" y1="117" x2="7.5" y2="2" gradientUnits="userSpaceOnUse">
<stop stop-color="#F05A28"/>
<stop offset="1" stop-color="#FD002E"/>
</linearGradient>
</defs>
</svg>
