<svg width="16" height="125" viewBox="0 0 16 125" fill="none" xmlns="http://www.w3.org/2000/svg">
<path d="M8 0C3.58172 -1.93129e-07 1.93129e-07 3.58172 0 8C-1.93129e-07 12.4183 3.58172 16 8 16C12.4183 16 16 12.4183 16 8C16 3.58172 12.4183 1.93129e-07 8 0ZM6.49999 123C6.49999 123.828 7.17157 124.5 7.99999 124.5C8.82842 124.5 9.49999 123.828 9.49999 123L6.49999 123ZM6.5 8L6.5 10.875L9.5 10.875L9.5 8L6.5 8ZM6.5 22.375L6.5 39.625L9.5 39.625L9.5 22.375L6.5 22.375ZM6.5 62.625L6.5 68.375L9.5 68.375L9.5 62.625L6.5 62.625ZM6.5 79.875L6.5 97.125L9.5 97.125L9.5 79.875L6.5 79.875ZM6.5 120.125L6.49999 123L9.49999 123L9.5 120.125L6.5 120.125Z" fill="url(#paint0_linear_91_257)"/>
<defs>
<linearGradient id="paint0_linear_91_257" x1="7.49999" y1="123" x2="7.5" y2="8" gradientUnits="userSpaceOnUse">
<stop stop-color="#FD002E"/>
<stop offset="1" stop-color="#F9CF64"/>
</linearGradient>
</defs>
</svg>
