<svg width="149" height="31" viewBox="0 0 149 31" fill="none" xmlns="http://www.w3.org/2000/svg">
<g opacity="0.6">
<path d="M37.3877 7.2937H40.9734V22.6107H37.3877V7.2937Z" fill="white"/>
<path d="M42.9814 17.3637C42.9814 16.2617 43.3504 15.1845 44.0415 14.2687C44.7326 13.3528 45.7148 12.6396 46.8635 12.2193C48.0122 11.7991 49.2757 11.6907 50.4939 11.9081C51.7121 12.1254 52.8302 12.6586 53.7063 13.44C54.5824 14.2215 55.1772 15.216 55.4153 16.2976C55.6533 17.3792 55.5239 18.4991 55.0435 19.5154C54.5631 20.5317 53.7532 21.3987 52.7166 22.0063C51.6799 22.614 50.4632 22.935 49.2206 22.9287C48.3964 22.9344 47.5793 22.7941 46.8171 22.5161C46.0548 22.238 45.3629 21.8278 44.7817 21.3095C44.2006 20.7912 43.7421 20.1752 43.4329 19.4976C43.1238 18.82 42.9703 18.0946 42.9814 17.3637ZM51.9697 17.3637C51.9556 16.8886 51.7838 16.4277 51.476 16.0388C51.1681 15.6498 50.7377 15.3499 50.2387 15.1767C49.7396 15.0035 49.1941 14.9646 48.6703 15.0649C48.1464 15.1652 47.6676 15.4003 47.2936 15.7407C46.9196 16.0811 46.6671 16.5117 46.5677 16.9787C46.4682 17.4457 46.5262 17.9283 46.7344 18.3662C46.9426 18.8042 47.2918 19.1779 47.7382 19.4408C48.1847 19.7036 48.7086 19.8439 49.2445 19.8441C49.6094 19.8504 49.9718 19.7899 50.3091 19.6664C50.6464 19.5428 50.9513 19.3589 51.2048 19.1261C51.4584 18.8933 51.655 18.6167 51.7825 18.3134C51.91 18.0102 51.9656 17.6868 51.9458 17.3637H51.9697Z" fill="white"/>
<path d="M69.6474 12.1167V22.0913C69.6474 25.6105 66.5398 27.1051 63.3963 27.1051C62.2875 27.1858 61.1753 26.9904 60.1849 26.541C59.1946 26.0915 58.3653 25.4058 57.7906 24.5611L60.8145 23.0135C61.0596 23.4516 61.4494 23.8132 61.932 24.0499C62.4146 24.2866 62.967 24.3873 63.5158 24.3385C63.8654 24.3767 64.2201 24.3459 64.5547 24.2483C64.8893 24.1508 65.1955 23.9889 65.4513 23.7741C65.7071 23.5594 65.9062 23.2972 66.0345 23.0063C66.1627 22.7154 66.2169 22.4029 66.1931 22.0913V21.1267C65.7759 21.5754 65.2464 21.9316 64.6468 22.1671C64.0472 22.4026 63.3939 22.511 62.7389 22.4835C61.1539 22.4835 59.6338 21.9251 58.5131 20.9312C57.3923 19.9372 56.7627 18.5891 56.7627 17.1835C56.7627 15.7778 57.3923 14.4298 58.5131 13.4358C59.6338 12.4419 61.1539 11.8835 62.7389 11.8835C63.3939 11.856 64.0472 11.9643 64.6468 12.1999C65.2464 12.4354 65.7759 12.7916 66.1931 13.2403V12.1803L69.6474 12.1167ZM66.1931 17.1517C66.217 16.6446 66.0692 16.1427 65.7689 15.7106C65.4685 15.2786 65.0293 14.936 64.5077 14.7271C63.986 14.5182 63.4059 14.4525 62.8418 14.5384C62.2777 14.6242 61.7555 14.8578 61.3423 15.209C60.929 15.5601 60.6437 16.0129 60.523 16.5091C60.4023 17.0053 60.4517 17.5221 60.6648 17.9932C60.878 18.4642 61.2452 18.868 61.7191 19.1525C62.1931 19.437 62.7522 19.5893 63.3245 19.5897C63.698 19.6136 64.073 19.5677 64.4252 19.455C64.7774 19.3424 65.0991 19.1655 65.3694 18.9357C65.6398 18.706 65.8527 18.4285 65.9946 18.1212C66.1365 17.8139 66.2041 17.4836 66.1931 17.1517Z" fill="white"/>
<path d="M71.6673 17.3637C71.6673 16.2626 72.0357 15.1862 72.7257 14.2708C73.4157 13.3555 74.3965 12.6422 75.5438 12.2213C76.6911 11.8004 77.9534 11.6908 79.171 11.9064C80.3885 12.122 81.5066 12.6531 82.3837 13.4324C83.2608 14.2117 83.8575 15.2043 84.0983 16.2845C84.3391 17.3647 84.2131 18.484 83.7363 19.5007C83.2595 20.5174 82.4534 21.3858 81.4199 21.996C80.3864 22.6062 79.172 22.9308 77.9304 22.9287C77.1047 22.9358 76.2857 22.7966 75.5214 22.5193C74.7571 22.2421 74.063 21.8322 73.4796 21.3139C72.8963 20.7956 72.4355 20.1792 72.1243 19.5009C71.8131 18.8226 71.6577 18.096 71.6673 17.3637ZM80.6556 17.3637C80.6415 16.8881 80.4694 16.4269 80.161 16.0377C79.8526 15.6485 79.4215 15.3486 78.9218 15.1758C78.422 15.0029 77.8759 14.9646 77.3518 15.0658C76.8276 15.167 76.3488 15.4031 75.9753 15.7445C75.6019 16.086 75.3503 16.5176 75.2522 16.9852C75.1541 17.4529 75.2138 17.9359 75.4238 18.3736C75.6338 18.8113 75.9848 19.1843 76.4328 19.4459C76.8809 19.7075 77.406 19.846 77.9424 19.8441C78.3072 19.8504 78.6696 19.7899 79.0069 19.6664C79.3442 19.5428 79.6492 19.3589 79.9027 19.1261C80.1562 18.8933 80.3529 18.6167 80.4803 18.3134C80.6078 18.0102 80.6634 17.6869 80.6436 17.3637H80.6556Z" fill="white"/>
<path d="M85.855 9.30765C85.855 8.93447 85.9797 8.56968 86.2135 8.2594C86.4473 7.94911 86.7796 7.70728 87.1683 7.56447C87.5571 7.42166 87.9849 7.3843 88.3976 7.4571C88.8103 7.5299 89.1894 7.7096 89.4869 7.97348C89.7844 8.23735 89.9871 8.57355 90.0691 8.93955C90.1512 9.30555 90.1091 9.68493 89.9481 10.0297C89.7871 10.3745 89.5144 10.6691 89.1645 10.8765C88.8146 11.0838 88.4033 11.1944 87.9825 11.1944C87.4202 11.1889 86.8826 10.9884 86.485 10.6357C86.0873 10.2831 85.8612 9.80635 85.855 9.30765ZM86.2016 12.1166H89.7873V22.6107H86.2016V12.1166Z" fill="white"/>
<path d="M105.134 17.3637C105.174 18.0616 105.059 18.7597 104.793 19.4178C104.528 20.0758 104.119 20.6809 103.589 21.1981C103.059 21.7153 102.419 22.1345 101.706 22.4315C100.993 22.7285 100.22 22.8975 99.4329 22.9287C98.7649 22.9681 98.0955 22.8733 97.4746 22.6512C96.8537 22.4291 96.2974 22.0855 95.8472 21.6461V26.8295H92.2614V12.1167H95.8472V13.1025C96.298 12.6644 96.8547 12.3224 97.4757 12.1022C98.0966 11.8819 98.7657 11.789 99.4329 11.8305C100.217 11.8618 100.986 12.0298 101.697 12.3248C102.408 12.6198 103.046 13.0361 103.576 13.5499C104.105 14.0637 104.515 14.665 104.783 15.3194C105.05 15.9737 105.17 16.6684 105.134 17.3637ZM101.548 17.3637C101.534 16.8714 101.357 16.3937 101.038 15.9906C100.719 15.5874 100.273 15.2767 99.7556 15.0974C99.2384 14.9181 98.673 14.8782 98.1303 14.9827C97.5877 15.0871 97.0918 15.3313 96.705 15.6846C96.3181 16.0379 96.0574 16.4846 95.9556 16.9687C95.8538 17.4529 95.9154 17.9529 96.1327 18.4061C96.35 18.8593 96.7132 19.2456 97.177 19.5165C97.6407 19.7874 98.1843 19.9309 98.7397 19.9289C99.12 19.9432 99.4995 19.8861 99.8532 19.7612C100.207 19.6364 100.527 19.4466 100.792 19.2044C101.057 18.9622 101.262 18.673 101.392 18.3558C101.523 18.0385 101.576 17.7005 101.548 17.3637Z" fill="white"/>
<path d="M116.047 19.4625C116.047 21.8793 113.656 22.9075 111.122 22.9075C110.089 22.99 109.051 22.7957 108.144 22.3497C107.236 21.9038 106.5 21.2267 106.031 20.4059L109.114 18.8583C109.237 19.2365 109.501 19.5661 109.865 19.7918C110.228 20.0176 110.668 20.1258 111.11 20.0985C111.959 20.0985 112.389 19.8653 112.389 19.4413C112.389 18.2859 106.569 18.9007 106.569 15.2649C106.569 12.9753 108.744 11.8305 111.206 11.8305C112.142 11.7933 113.072 11.9816 113.897 12.3754C114.722 12.7692 115.411 13.3538 115.891 14.0671L112.808 15.5087C112.671 15.2352 112.449 15.0026 112.167 14.8389C111.885 14.6753 111.555 14.5876 111.218 14.5865C110.596 14.5865 110.226 14.7985 110.226 15.1695C110.226 16.3779 116.047 15.5829 116.047 19.4625Z" fill="white"/>
<path d="M129.039 12.1167V22.6107H125.453V21.6249C125.046 22.0613 124.529 22.4066 123.943 22.6331C123.358 22.8596 122.72 22.9608 122.083 22.9287C119.692 22.9287 117.648 21.4129 117.648 18.5827V12.1167H121.234V18.1057C121.206 18.3561 121.239 18.6089 121.332 18.8467C121.425 19.0845 121.575 19.3017 121.771 19.4831C121.968 19.6645 122.207 19.8059 122.471 19.8975C122.735 19.9891 123.019 20.0288 123.302 20.0137C124.593 20.0137 125.501 19.3353 125.501 17.8937V12.1167H129.039Z" fill="white"/>
<path d="M149.358 16.1659V22.6107H145.773V16.4415C145.773 15.3815 145.211 14.7243 144.075 14.7243C142.94 14.7243 142.223 15.4557 142.223 16.6959V22.6107H138.637V16.4415C138.637 15.3815 138.075 14.7243 136.94 14.7243C135.804 14.7243 135.087 15.4557 135.087 16.6959V22.6107H131.501V12.1167H135.087V13.0813C135.458 12.6551 135.943 12.3176 136.498 12.0993C137.053 11.8809 137.661 11.7885 138.266 11.8305C138.873 11.8024 139.477 11.9147 140.02 12.1563C140.562 12.3979 141.025 12.7605 141.362 13.2085C141.756 12.7404 142.277 12.3685 142.877 12.1276C143.477 11.8866 144.136 11.7844 144.792 11.8305C147.589 11.8305 149.358 13.5477 149.358 16.1659Z" fill="white"/>
<path d="M16.0286 4.53771V0.0327148H0.0123291V30.9847H16.0286V26.4797C12.7477 26.4797 9.60113 25.3238 7.28115 23.2664C4.96118 21.2089 3.65783 18.4184 3.65783 15.5087C3.65783 12.599 4.96118 9.80851 7.28115 7.75104C9.60113 5.69358 12.7477 4.53771 16.0286 4.53771Z" fill="white"/>
<path d="M16.0286 4.53771V26.4797C19.3096 26.4797 22.456 25.3238 24.776 23.2664C27.096 21.2089 28.3993 18.4184 28.3993 15.5087C28.3993 12.599 27.096 9.80851 24.776 7.75105C22.456 5.69359 19.3096 4.53771 16.0286 4.53771Z" fill="white"/>
<path d="M152.37 12.0531C153.823 12.0531 155 11.009 155 9.72109C155 8.43316 153.823 7.38908 152.37 7.38908C150.918 7.38908 149.741 8.43316 149.741 9.72109C149.741 11.009 150.918 12.0531 152.37 12.0531Z" fill="white"/>
</g>
</svg>
