<svg width="143" height="29" viewBox="0 0 143 29" fill="none" xmlns="http://www.w3.org/2000/svg">
<g opacity="0.6">
<path d="M41.5404 8.2932H45.1262V21.0297H41.5404V8.2932ZM46.5485 16.2207C46.5485 13.0707 48.7478 11.1912 52.1423 11.1912C55.5368 11.1912 57.736 13.0707 57.736 16.2207C57.736 19.3707 55.5846 21.2607 52.1423 21.2607C48.7 21.2607 46.5485 19.4232 46.5485 16.2207ZM54.1383 16.2207C54.1383 14.4882 53.3614 13.4697 52.1423 13.4697C50.9231 13.4697 50.1582 14.5197 50.1582 16.2207C50.1582 17.9217 50.9112 18.9507 52.1423 18.9507C53.3734 18.9507 54.1383 17.9847 54.1383 16.2312V16.2207ZM59.0867 21.6492H62.529C62.6928 21.9689 62.9697 22.2336 63.3186 22.4039C63.6675 22.5742 64.0697 22.6409 64.4653 22.5942C65.8278 22.5942 66.545 21.9432 66.545 20.9982V19.2342H66.4733C66.1876 19.7748 65.724 20.2279 65.1424 20.5348C64.5608 20.8417 63.8878 20.9885 63.2103 20.9562C60.5927 20.9562 58.8596 19.2027 58.8596 16.1892C58.8596 13.1757 60.509 11.2752 63.2581 11.2752C63.9568 11.2511 64.6472 11.4152 65.2368 11.7455C65.8264 12.0758 66.287 12.5565 66.5569 13.1232V11.3697H70.1427V20.9247C70.1427 23.2242 67.8359 24.6522 64.4294 24.6522C61.262 24.6522 59.2899 23.4027 59.0867 21.6597V21.6492ZM66.5569 16.2102C66.5569 14.6772 65.7561 13.7112 64.4892 13.7112C63.2222 13.7112 62.4453 14.6667 62.4453 16.2102C62.4453 17.7537 63.2103 18.6252 64.4892 18.6252C65.7681 18.6252 66.5569 17.7747 66.5569 16.2207V16.2102ZM71.4933 16.2102C71.4933 13.0602 73.6926 11.1807 77.0871 11.1807C80.4816 11.1807 82.6928 13.0602 82.6928 16.2102C82.6928 19.3602 80.5413 21.2502 77.0871 21.2502C73.6328 21.2502 71.4933 19.4232 71.4933 16.2207V16.2102ZM79.0831 16.2102C79.0831 14.4777 78.3062 13.4592 77.0871 13.4592C75.8679 13.4592 75.1627 14.5197 75.1627 16.2312C75.1627 17.9427 75.9157 18.9612 77.1349 18.9612C78.354 18.9612 79.0831 17.9847 79.0831 16.2312V16.2102ZM84.0554 9.0807C84.046 8.76266 84.1443 8.44934 84.3378 8.18044C84.5314 7.91154 84.8114 7.69918 85.1425 7.57028C85.4736 7.44138 85.8409 7.40175 86.1976 7.45641C86.5544 7.51106 86.8847 7.65755 87.1466 7.87729C87.4084 8.09703 87.5902 8.38014 87.6687 8.69072C87.7472 9.0013 87.719 9.32536 87.5876 9.62183C87.4562 9.9183 87.2276 10.1738 86.9307 10.356C86.6338 10.5382 86.282 10.6389 85.9199 10.6452C85.6799 10.6597 85.4391 10.6304 85.2125 10.5592C84.986 10.488 84.7787 10.3765 84.6036 10.2315C84.4285 10.0866 84.2894 9.91137 84.195 9.71694C84.1007 9.52251 84.0531 9.31305 84.0554 9.1017V9.0807ZM84.0554 11.3907H87.6411V21.0297H84.0554V11.3907ZM100.657 16.2102C100.657 19.3602 99.0676 21.1557 96.3425 21.1557C95.6437 21.1951 94.948 21.045 94.3494 20.7258C93.7509 20.4065 93.2784 19.9335 92.9958 19.3707H92.9241V24.1167H89.3383V11.3697H92.9241V13.0917H92.9958C93.2652 12.5196 93.7287 12.0342 94.3232 11.7017C94.9178 11.3692 95.6145 11.2056 96.3186 11.2332C99.0676 11.2752 100.705 13.0812 100.705 16.2312L100.657 16.2102ZM97.0716 16.2102C97.0716 14.6772 96.2708 13.7007 95.0158 13.7007C93.7607 13.7007 92.9599 14.6877 92.948 16.2102C92.936 17.7327 93.7607 18.7092 95.0158 18.7092C96.2708 18.7092 97.0716 17.7537 97.0716 16.2312V16.2102ZM106.813 11.1702C109.789 11.1702 111.594 12.4092 111.677 14.3937H108.414C108.414 13.7112 107.769 13.2807 106.777 13.2807C105.785 13.2807 105.343 13.6167 105.343 14.1102C105.343 14.6037 105.737 14.7612 106.538 14.9082L108.833 15.3177C111.02 15.7272 111.952 16.5042 111.952 17.9637C111.952 19.9587 109.885 21.2397 106.837 21.2397C103.789 21.2397 101.793 19.9587 101.637 17.9952H105.092C105.199 18.7092 105.845 19.1292 106.896 19.1292C107.948 19.1292 108.426 18.8247 108.426 18.3207C108.426 17.8167 108.092 17.7117 107.231 17.5542L105.163 17.1657C103.024 16.7772 101.9 15.7797 101.9 14.3097C101.924 12.4197 103.849 11.1912 106.813 11.1912V11.1702ZM123.917 21.0087H120.463V19.2132H120.391C120.201 19.816 119.782 20.3437 119.204 20.7085C118.625 21.0733 117.922 21.2533 117.211 21.2187C116.667 21.2459 116.122 21.1701 115.613 20.9963C115.105 20.8226 114.644 20.5549 114.264 20.2115C113.883 19.8681 113.591 19.457 113.406 19.0058C113.222 18.5546 113.15 18.0739 113.195 17.5962V11.3697H116.781V16.8717C116.781 18.0162 117.451 18.6252 118.562 18.6252C118.823 18.6257 119.081 18.5772 119.318 18.483C119.556 18.3888 119.768 18.2511 119.94 18.0791C120.112 17.907 120.24 17.7047 120.316 17.4856C120.391 17.2665 120.413 17.0357 120.379 16.8087V11.3697H123.965L123.917 21.0087ZM125.65 11.3697H129.116V13.2282H129.188C129.378 12.6334 129.788 12.1107 130.352 11.7421C130.917 11.3735 131.604 11.1798 132.307 11.1912C133.023 11.1409 133.734 11.329 134.298 11.7181C134.863 12.1072 135.24 12.6688 135.355 13.2912H135.427C135.644 12.6622 136.093 12.1144 136.703 11.7342C137.313 11.354 138.05 11.163 138.798 11.1912C139.285 11.1768 139.771 11.2527 140.223 11.414C140.675 11.5752 141.083 11.8182 141.422 12.1272C141.76 12.4361 142.02 12.8042 142.186 13.2073C142.352 13.6105 142.419 14.0397 142.383 14.4672V21.0297H138.798V15.3072C138.798 14.2572 138.26 13.7742 137.256 13.7742C137.032 13.7725 136.81 13.8131 136.606 13.8931C136.401 13.9731 136.218 14.0907 136.07 14.238C135.922 14.3853 135.811 14.5588 135.745 14.7469C135.68 14.9349 135.661 15.1332 135.69 15.3282V21.0297H132.284V15.2652C132.284 14.2992 131.746 13.7742 130.766 13.7742C130.539 13.7743 130.315 13.8165 130.109 13.8981C129.902 13.9798 129.718 14.0989 129.568 14.2477C129.417 14.3966 129.305 14.5717 129.237 14.7616C129.17 14.9514 129.149 15.1517 129.176 15.3492V21.0297H125.59L125.65 11.3697Z" fill="white"/>
<path d="M31.5123 8.87076C30.9041 7.64893 30.099 6.51029 29.1219 5.48976C27.6774 3.93611 25.8747 2.66882 23.8325 1.7713C21.7903 0.873769 19.5549 0.366356 17.2734 0.282452C14.9919 0.198549 12.716 0.540055 10.5956 1.2845C8.47512 2.02894 6.55819 3.15944 4.97093 4.60159C3.38367 6.04374 2.16207 7.76485 1.38653 9.65162C0.610995 11.5384 0.299103 13.5481 0.471387 15.5484C0.643672 17.5487 1.29623 19.4942 2.3861 21.257C3.47597 23.0198 4.97845 24.5598 6.79465 25.7758C7.96002 26.5715 9.24772 27.2185 10.6194 27.6973C12.5426 28.3896 14.6009 28.7462 16.6793 28.7473C20.9696 28.7389 25.081 27.2366 28.1124 24.5696C31.1438 21.9027 32.8479 18.2886 32.851 14.5198C32.8542 12.5757 32.3984 10.6522 31.5123 8.87076ZM16.6674 3.16926C18.5338 3.16908 20.3777 3.52745 22.0699 4.21926C21.6573 4.37588 21.2234 4.48528 20.779 4.54476C19.3168 4.73071 17.9622 5.32709 16.9174 6.24489C15.8726 7.16268 15.1938 8.35268 14.9821 9.63725C14.8892 10.3577 14.5162 11.0279 13.9261 11.5348C13.336 12.0417 12.5649 12.3543 11.743 12.4198C10.2807 12.6057 8.92609 13.2021 7.88133 14.1199C6.83658 15.0377 6.1577 16.2277 5.94603 17.5123C5.87436 18.1973 5.54166 18.841 5.00178 19.3393C4.07027 17.6102 3.65181 15.7022 3.78535 13.7929C3.91888 11.8835 4.60006 10.0349 5.76551 8.41899C6.93095 6.80309 8.54278 5.47245 10.451 4.5509C12.3592 3.62934 14.5018 3.14683 16.6793 3.14825L16.6674 3.16926ZM6.7827 21.8698C6.92613 21.7543 7.06956 21.6493 7.21299 21.5233C8.27634 20.6176 8.9589 19.4221 9.14929 18.1318C9.22648 17.4065 9.59511 16.729 10.1891 16.2208C10.7608 15.698 11.5302 15.3769 12.3525 15.3178C13.8148 15.1318 15.1694 14.5354 16.2142 13.6176C17.2589 12.6998 17.9378 11.5098 18.1495 10.2253C18.2012 9.46665 18.5718 8.75194 19.1894 8.21976C19.7751 7.7072 20.5518 7.39771 21.3767 7.34825C22.72 7.18589 23.9729 6.66126 24.9624 5.84676C26.0891 6.66793 27.0437 7.6558 27.7832 8.76576C27.7378 8.81967 27.6856 8.86898 27.6278 8.91276C27.0573 9.44006 26.2889 9.76826 25.4644 9.83676C24.0006 10.0195 22.644 10.6148 21.5985 11.5332C20.5531 12.4516 19.8754 13.6434 19.6675 14.9293C19.5832 15.6521 19.2171 16.3271 18.6311 16.84C18.0452 17.3528 17.2754 17.6719 16.4522 17.7433C14.9857 17.9278 13.626 18.523 12.5752 19.4404C11.5244 20.3578 10.8385 21.5486 10.6194 22.8358C10.5551 23.3489 10.3545 23.8417 10.0338 24.2743C8.80744 23.6346 7.70912 22.8223 6.7827 21.8698ZM16.6674 25.9228C15.4545 25.9239 14.2475 25.7755 13.0816 25.4818C13.4805 24.8287 13.7397 24.1169 13.8466 23.3818C13.9304 22.6605 14.2948 21.9867 14.8783 21.4741C15.4619 20.9615 16.2289 20.6413 17.0499 20.5678C18.5143 20.3839 19.8716 19.7884 20.9187 18.8705C21.9658 17.9525 22.6465 16.7614 22.8588 15.4753C22.9425 14.754 23.3069 14.0802 23.8905 13.5676C24.474 13.055 25.241 12.7348 26.062 12.6613C27.1641 12.5353 28.2144 12.1749 29.1219 11.6113C29.6257 13.2891 29.6854 15.046 29.2963 16.7472C28.9073 18.4484 28.0798 20.0487 26.8773 21.4254C25.6749 22.802 24.1295 23.9184 22.3597 24.6889C20.5898 25.4594 18.6426 25.8635 16.6674 25.8703V25.9228Z" fill="white"/>
</g>
</svg>
