<svg width="152" height="32" viewBox="0 0 152 32" fill="none" xmlns="http://www.w3.org/2000/svg">
<g opacity="0.6">
<path d="M43.4832 9.48191H47.32V23.1319H43.4832V9.48191ZM48.8499 17.9974C48.8499 14.6164 51.2404 12.5899 54.8261 12.5899C58.4118 12.5899 60.8023 14.6164 60.8023 17.9974C60.8023 21.3784 58.4955 23.4259 54.8261 23.4259C51.1567 23.4259 48.8499 21.4519 48.8499 17.9974ZM57.0015 17.9974C57.0015 16.1389 56.1767 15.0469 54.862 15.0469C53.5472 15.0469 52.7344 16.0969 52.7344 17.9974C52.7344 19.8979 53.5472 20.9374 54.862 20.9374C56.1767 20.9374 57.0254 19.8979 57.0254 18.0079L57.0015 17.9974ZM62.3323 23.8354H66.0375C66.2062 24.1858 66.5008 24.4782 66.8763 24.6678C67.2518 24.8573 67.6877 24.9338 68.1172 24.8854C69.5874 24.8854 70.3524 24.1924 70.3524 23.1634V21.2734H70.3643C70.0477 21.8619 69.5357 22.3524 68.8957 22.6804C68.2556 23.0084 67.5176 23.1585 66.7786 23.1109C63.9697 23.1109 62.1052 21.2314 62.1052 17.9974C62.1052 14.7634 63.8861 12.7474 66.8861 12.7474C67.6441 12.7118 68.3959 12.8835 69.0381 13.2389C69.6803 13.5943 70.1812 14.116 70.4719 14.7319H70.3643V12.8314H74.1652V23.0584C74.1652 25.5259 71.6791 27.0694 68.0216 27.0694C64.6988 27.0589 62.5713 25.7254 62.3562 23.8459L62.3323 23.8354ZM70.3643 17.9974C70.3643 16.3489 69.5037 15.3094 68.1412 15.3094C66.7786 15.3094 65.9419 16.3594 65.9419 17.9974C65.9419 19.6354 66.7666 20.6014 68.1412 20.6014C69.5157 20.6014 70.3643 19.7089 70.3643 17.9974ZM75.6832 17.9974C75.6832 14.6164 78.0736 12.5899 81.6594 12.5899C85.2451 12.5899 87.6356 14.6164 87.6356 17.9974C87.6356 21.3784 85.3168 23.4259 81.6594 23.4259C78.0019 23.4259 75.7071 21.4519 75.7071 17.9974H75.6832ZM83.8347 17.9974C83.8347 16.1389 82.9981 15.0469 81.6953 15.0469C80.3924 15.0469 79.5677 16.0969 79.5677 17.9974C79.5677 19.8979 80.3805 20.9374 81.6953 20.9374C83.01 20.9374 83.8587 19.8979 83.8587 18.0079L83.8347 17.9974ZM89.1894 10.3429C89.1727 9.99958 89.2734 9.65972 89.4784 9.36703C89.6833 9.07435 89.9833 8.84224 90.3397 8.70057C90.6961 8.55889 91.0926 8.51413 91.4782 8.57204C91.8638 8.62995 92.2208 8.78788 92.5034 9.02552C92.786 9.26316 92.9811 9.56963 93.0638 9.90551C93.1465 10.2414 93.1128 10.5913 92.9673 10.9103C92.8217 11.2292 92.5708 11.5026 92.2469 11.6953C91.923 11.888 91.5408 11.9911 91.1497 11.9914C90.8997 11.997 90.6509 11.9589 90.4178 11.8793C90.1847 11.7998 89.9719 11.6803 89.7918 11.528C89.6116 11.3756 89.4677 11.1933 89.3684 10.9917C89.2691 10.79 89.2164 10.5731 89.2133 10.3534L89.1894 10.3429ZM89.1894 12.8209H93.074V23.1739H89.2492L89.1894 12.8209ZM107.046 17.9974C107.046 21.3679 105.325 23.3209 102.397 23.3209C101.647 23.3615 100.901 23.1991 100.26 22.8554C99.6189 22.5118 99.1131 22.0036 98.8112 21.3994H98.7395V26.5024H94.9027V12.8524H98.7156V14.7004H98.7873C99.0789 14.0843 99.5797 13.5622 100.221 13.2052C100.863 12.8482 101.614 12.6737 102.373 12.7054C105.385 12.6844 107.118 14.6269 107.118 18.0079L107.046 17.9974ZM103.138 17.9974C103.138 16.3594 102.265 15.2989 100.915 15.2989C99.5642 15.2989 98.7156 16.3489 98.7036 17.9974C98.6917 19.6459 99.5642 20.6854 100.915 20.6854C102.265 20.6854 103.21 19.7089 103.21 18.0079L103.138 17.9974ZM113.596 12.5794C116.812 12.5794 118.808 13.9129 118.832 16.0549H115.329C115.329 15.3094 114.624 14.8474 113.572 14.8474C112.521 14.8474 112.019 15.2044 112.019 15.7399C112.019 16.2754 112.461 16.4434 113.345 16.6009L115.808 17.0419C118.198 17.4829 119.154 18.3229 119.154 19.8874C119.154 21.9874 116.943 23.4154 113.656 23.4154C110.369 23.4154 108.23 22.0294 108.074 19.9189H111.792C111.899 20.6854 112.592 21.1369 113.716 21.1369C114.839 21.1369 115.365 20.8219 115.365 20.2654C115.365 19.7089 115.007 19.6144 114.086 19.4464L111.863 19.0369C109.556 18.6064 108.349 17.5459 108.349 15.9604C108.421 13.9024 110.429 12.5899 113.668 12.5899L113.596 12.5794ZM132.003 23.1634H128.286V21.2209H128.214C128.006 21.8688 127.553 22.4351 126.929 22.8264C126.306 23.2177 125.549 23.4106 124.784 23.3734C124.206 23.3899 123.631 23.299 123.096 23.1064C122.561 22.9139 122.079 22.6242 121.68 22.2564C121.282 21.8885 120.977 21.4508 120.784 20.972C120.592 20.4931 120.517 19.984 120.565 19.4779V12.8314H124.401V18.7534C124.401 19.9714 125.131 20.6329 126.326 20.6329C126.606 20.6311 126.883 20.5764 127.137 20.4725C127.391 20.3687 127.617 20.2182 127.8 20.031C127.982 19.8439 128.117 19.6246 128.195 19.3879C128.272 19.1512 128.291 18.9026 128.25 18.6589V12.8314H132.075L132.003 23.1634ZM133.856 12.8209H137.585V14.8159H137.669C137.875 14.1768 138.316 13.6158 138.924 13.2206C139.532 12.8254 140.271 12.6184 141.027 12.6319C141.786 12.5739 142.542 12.7667 143.148 13.1726C143.754 13.5784 144.165 14.1681 144.302 14.8264H144.47C144.708 14.1646 145.189 13.5907 145.838 13.1938C146.486 12.797 147.266 12.5994 148.055 12.6319C148.58 12.6144 149.103 12.6944 149.59 12.8666C150.077 13.0389 150.517 13.2996 150.882 13.6317C151.246 13.9637 151.527 14.3596 151.705 14.7935C151.883 15.2274 151.955 15.6894 151.916 16.1494V23.1739H148.055V17.0104C148.055 15.9604 147.494 15.3724 146.406 15.3724C146.165 15.3689 145.925 15.4113 145.705 15.4967C145.484 15.582 145.287 15.7083 145.126 15.8669C144.966 16.0255 144.847 16.2126 144.777 16.4154C144.707 16.6182 144.688 16.8319 144.721 17.0419V23.1739H141.063V16.9789C141.063 15.9289 140.477 15.3724 139.426 15.3724C139.182 15.3707 138.941 15.4148 138.718 15.5018C138.495 15.5888 138.296 15.7166 138.134 15.8768C137.972 16.0369 137.851 16.2255 137.779 16.4301C137.707 16.6347 137.686 16.8505 137.716 17.0629V23.1739H133.88L133.856 12.8209Z" fill="white"/>
<path d="M35.8933 10.3745C35.8934 8.28468 35.175 6.24355 33.8323 4.51846C32.4895 2.79337 30.585 1.46476 28.3681 0.706655C26.1512 -0.0514509 23.7254 -0.203703 21.4084 0.269839C19.0914 0.74338 16.9912 1.82064 15.3829 3.36051H0.466187V31.0175H31.9609V18.092C33.1971 17.1207 34.1862 15.9314 34.8638 14.6016C35.5414 13.2718 35.8922 11.8314 35.8933 10.3745ZM29.8334 10.3745C29.8358 11.3759 29.4999 12.3554 28.8683 13.1891C28.2367 14.0228 27.3378 14.6731 26.2853 15.0577C25.2328 15.4424 24.074 15.5441 22.9557 15.35C21.8374 15.1559 20.8097 14.6748 20.0028 13.9674C19.1959 13.26 18.6461 12.3582 18.4228 11.3762C18.1995 10.3942 18.3129 9.37607 18.7486 8.45068C19.1843 7.52529 19.9227 6.73425 20.8704 6.17767C21.818 5.62109 22.9324 5.32401 24.0723 5.324C25.5982 5.324 27.0617 5.85577 28.1418 6.80262C29.2219 7.74947 29.8302 9.03407 29.8334 10.3745ZM25.901 25.694H6.52608V8.68401H12.4306C12.3165 9.24204 12.2566 9.80757 12.2513 10.3745C12.2545 13.1278 13.5009 15.7675 15.7171 17.7144C17.9333 19.6613 20.9382 20.7562 24.0723 20.759C24.685 20.7562 25.2965 20.7105 25.901 20.6225V25.694Z" fill="white"/>
</g>
</svg>
