<svg width="156" height="31" viewBox="0 0 156 31" fill="none" xmlns="http://www.w3.org/2000/svg">
<g opacity="0.6">
<path d="M37.7268 7.2937H41.3125V22.6107H37.7268V7.2937Z" fill="white"/>
<path d="M43.3205 17.3637C43.3206 16.2617 43.6895 15.1845 44.3806 14.2687C45.0717 13.3528 46.0539 12.6396 47.2026 12.2193C48.3513 11.7991 49.6148 11.6907 50.833 11.9081C52.0512 12.1254 53.1693 12.6586 54.0454 13.44C54.9215 14.2215 55.5163 15.216 55.7544 16.2976C55.9925 17.3792 55.8631 18.4991 55.3826 19.5154C54.9022 20.5317 54.0923 21.3987 53.0557 22.0063C52.019 22.614 50.8023 22.935 49.5597 22.9287C48.7356 22.9344 47.9184 22.7941 47.1562 22.5161C46.3939 22.238 45.702 21.8278 45.1209 21.3095C44.5397 20.7912 44.0812 20.1752 43.772 19.4976C43.4629 18.82 43.3094 18.0946 43.3205 17.3637ZM52.3088 17.3637C52.2947 16.8886 52.123 16.4277 51.8151 16.0388C51.5072 15.6498 51.0768 15.3499 50.5778 15.1767C50.0787 15.0035 49.5332 14.9646 49.0094 15.0649C48.4856 15.1652 48.0067 15.4003 47.6327 15.7407C47.2588 16.0811 47.0062 16.5117 46.9068 16.9787C46.8073 17.4457 46.8653 17.9283 47.0735 18.3662C47.2817 18.8042 47.6309 19.1779 48.0773 19.4408C48.5238 19.7036 49.0477 19.8439 49.5836 19.8441C49.9485 19.8504 50.3109 19.7899 50.6482 19.6664C50.9855 19.5428 51.2904 19.3589 51.544 19.1261C51.7975 18.8933 51.9941 18.6167 52.1216 18.3134C52.2491 18.0102 52.3047 17.6868 52.2849 17.3637H52.3088Z" fill="white"/>
<path d="M69.9865 12.1167V22.0913C69.9865 25.6105 66.8789 27.1051 63.7354 27.1051C62.6266 27.1858 61.5144 26.9904 60.5241 26.541C59.5337 26.0915 58.7044 25.4058 58.1297 24.5611L61.1536 23.0135C61.3987 23.4516 61.7885 23.8132 62.2711 24.0499C62.7537 24.2866 63.3062 24.3873 63.8549 24.3385C64.2045 24.3767 64.5592 24.3459 64.8938 24.2483C65.2284 24.1508 65.5346 23.9889 65.7904 23.7741C66.0462 23.5594 66.2454 23.2972 66.3736 23.0063C66.5019 22.7154 66.556 22.4029 66.5323 22.0913V21.1267C66.115 21.5754 65.5855 21.9316 64.9859 22.1671C64.3863 22.4026 63.7331 22.511 63.078 22.4835C61.493 22.4835 59.9729 21.9251 58.8522 20.9312C57.7314 19.9372 57.1018 18.5891 57.1018 17.1835C57.1018 15.7778 57.7314 14.4298 58.8522 13.4358C59.9729 12.4419 61.493 11.8835 63.078 11.8835C63.7331 11.856 64.3863 11.9643 64.9859 12.1999C65.5855 12.4354 66.115 12.7916 66.5323 13.2403V12.1803L69.9865 12.1167ZM66.5323 17.1517C66.5561 16.6446 66.4083 16.1427 66.108 15.7106C65.8076 15.2786 65.3684 14.936 64.8468 14.7271C64.3252 14.5182 63.745 14.4525 63.1809 14.5384C62.6168 14.6242 62.0946 14.8578 61.6814 15.209C61.2681 15.5601 60.9828 16.0129 60.8621 16.5091C60.7414 17.0053 60.7908 17.5221 61.0039 17.9932C61.2171 18.4642 61.5843 18.868 62.0582 19.1525C62.5322 19.437 63.0913 19.5893 63.6637 19.5897C64.0371 19.6136 64.4121 19.5677 64.7643 19.455C65.1165 19.3424 65.4382 19.1655 65.7085 18.9357C65.9789 18.706 66.1919 18.4285 66.3337 18.1212C66.4756 17.8139 66.5433 17.4836 66.5323 17.1517Z" fill="white"/>
<path d="M72.0064 17.3637C72.0064 16.2626 72.3748 15.1862 73.0648 14.2708C73.7548 13.3555 74.7356 12.6422 75.8829 12.2213C77.0302 11.8004 78.2925 11.6908 79.5101 11.9064C80.7276 12.122 81.8457 12.6531 82.7228 13.4324C83.5999 14.2117 84.1966 15.2043 84.4374 16.2845C84.6782 17.3647 84.5522 18.484 84.0754 19.5007C83.5986 20.5174 82.7925 21.3858 81.759 21.996C80.7255 22.6062 79.5111 22.9308 78.2695 22.9287C77.4438 22.9358 76.6248 22.7966 75.8605 22.5193C75.0963 22.2421 74.4021 21.8322 73.8187 21.3139C73.2354 20.7956 72.7746 20.1792 72.4634 19.5009C72.1522 18.8226 71.9969 18.096 72.0064 17.3637ZM80.9947 17.3637C80.9806 16.8881 80.8085 16.4269 80.5001 16.0377C80.1917 15.6485 79.7606 15.3486 79.2609 15.1758C78.7611 15.0029 78.215 14.9646 77.6909 15.0658C77.1667 15.167 76.688 15.4031 76.3145 15.7445C75.941 16.086 75.6894 16.5176 75.5913 16.9852C75.4932 17.4529 75.5529 17.9359 75.7629 18.3736C75.9729 18.8113 76.3239 19.1843 76.7719 19.4459C77.22 19.7075 77.7451 19.846 78.2815 19.8441C78.6463 19.8504 79.0088 19.7899 79.3461 19.6664C79.6834 19.5428 79.9883 19.3589 80.2418 19.1261C80.4953 18.8933 80.692 18.6167 80.8195 18.3134C80.9469 18.0102 81.0025 17.6869 80.9827 17.3637H80.9947Z" fill="white"/>
<path d="M86.1941 9.30765C86.1941 8.93447 86.3189 8.56968 86.5526 8.2594C86.7864 7.94911 87.1187 7.70728 87.5074 7.56447C87.8962 7.42166 88.324 7.3843 88.7367 7.4571C89.1494 7.5299 89.5285 7.7096 89.826 7.97348C90.1235 8.23735 90.3262 8.57355 90.4083 8.93955C90.4903 9.30555 90.4482 9.68493 90.2872 10.0297C90.1262 10.3745 89.8535 10.6691 89.5036 10.8765C89.1537 11.0838 88.7424 11.1944 88.3216 11.1944C87.7593 11.1889 87.2217 10.9884 86.8241 10.6357C86.4264 10.2831 86.2003 9.80635 86.1941 9.30765ZM86.5407 12.1166H90.1264V22.6107H86.5407V12.1166Z" fill="white"/>
<path d="M105.473 17.3637C105.514 18.0616 105.398 18.7597 105.132 19.4178C104.867 20.0758 104.458 20.6809 103.928 21.1981C103.398 21.7153 102.758 22.1345 102.045 22.4315C101.332 22.7285 100.559 22.8975 99.772 22.9287C99.104 22.9681 98.4346 22.8733 97.8137 22.6512C97.1928 22.4291 96.6365 22.0855 96.1863 21.6461V26.8295H92.6005V12.1167H96.1863V13.1025C96.6371 12.6644 97.1938 12.3224 97.8148 12.1022C98.4358 11.8819 99.1049 11.789 99.772 11.8305C100.556 11.8618 101.325 12.0298 102.036 12.3248C102.747 12.6198 103.385 13.0361 103.915 13.5499C104.444 14.0637 104.854 14.665 105.122 15.3194C105.389 15.9737 105.509 16.6684 105.473 17.3637ZM101.888 17.3637C101.873 16.8714 101.696 16.3937 101.377 15.9906C101.058 15.5874 100.612 15.2767 100.095 15.0974C99.5775 14.9181 99.0121 14.8782 98.4695 14.9827C97.9268 15.0871 97.4309 15.3313 97.0441 15.6846C96.6572 16.0379 96.3965 16.4846 96.2947 16.9687C96.1929 17.4529 96.2545 17.9529 96.4718 18.4061C96.6891 18.8593 97.0524 19.2456 97.5161 19.5165C97.9799 19.7874 98.5235 19.9309 99.0788 19.9289C99.4591 19.9432 99.8386 19.8861 100.192 19.7612C100.546 19.6364 100.866 19.4466 101.131 19.2044C101.396 18.9622 101.601 18.673 101.731 18.3558C101.862 18.0385 101.915 17.7005 101.888 17.3637Z" fill="white"/>
<path d="M116.386 19.4625C116.386 21.8793 113.995 22.9075 111.462 22.9075C110.428 22.99 109.39 22.7957 108.483 22.3497C107.575 21.9038 106.839 21.2267 106.37 20.4059L109.453 18.8583C109.576 19.2365 109.841 19.5661 110.204 19.7918C110.567 20.0176 111.007 20.1258 111.45 20.0985C112.298 20.0985 112.728 19.8653 112.728 19.4413C112.728 18.2859 106.908 18.9007 106.908 15.2649C106.908 12.9753 109.083 11.8305 111.545 11.8305C112.481 11.7933 113.411 11.9816 114.236 12.3754C115.061 12.7692 115.75 13.3538 116.231 14.0671L113.147 15.5087C113.011 15.2352 112.788 15.0026 112.506 14.8389C112.224 14.6753 111.894 14.5876 111.557 14.5865C110.936 14.5865 110.565 14.7985 110.565 15.1695C110.565 16.3779 116.386 15.5829 116.386 19.4625Z" fill="white"/>
<path d="M129.378 12.1167V22.6107H125.792V21.6249C125.385 22.0613 124.868 22.4066 124.282 22.6331C123.697 22.8596 123.06 22.9608 122.422 22.9287C120.031 22.9287 117.987 21.4129 117.987 18.5827V12.1167H121.573V18.1057C121.545 18.3561 121.578 18.6089 121.671 18.8467C121.764 19.0845 121.914 19.3017 122.11 19.4831C122.307 19.6645 122.546 19.8059 122.81 19.8975C123.074 19.9891 123.358 20.0288 123.641 20.0137C124.932 20.0137 125.84 19.3353 125.84 17.8937V12.1167H129.378Z" fill="white"/>
<path d="M149.697 16.1659V22.6107H146.112V16.4415C146.112 15.3815 145.55 14.7243 144.414 14.7243C143.279 14.7243 142.562 15.4557 142.562 16.6959V22.6107H138.976V16.4415C138.976 15.3815 138.414 14.7243 137.279 14.7243C136.143 14.7243 135.426 15.4557 135.426 16.6959V22.6107H131.84V12.1167H135.426V13.0813C135.797 12.6551 136.282 12.3176 136.837 12.0993C137.392 11.8809 138 11.7885 138.605 11.8305C139.212 11.8024 139.816 11.9147 140.359 12.1563C140.902 12.3979 141.364 12.7605 141.701 13.2085C142.095 12.7404 142.616 12.3685 143.216 12.1276C143.816 11.8866 144.475 11.7844 145.132 11.8305C147.928 11.8305 149.697 13.5477 149.697 16.1659Z" fill="white"/>
<path d="M16.3677 4.53771V0.0327148H0.35144V30.9847H16.3677V26.4797C13.0868 26.4797 9.94024 25.3238 7.62027 23.2664C5.30029 21.2089 3.99694 18.4184 3.99694 15.5087C3.99694 12.599 5.30029 9.80851 7.62027 7.75104C9.94024 5.69358 13.0868 4.53771 16.3677 4.53771Z" fill="white"/>
<path d="M16.3677 4.53771V26.4797C19.6487 26.4797 22.7952 25.3238 25.1151 23.2664C27.4351 21.2089 28.7385 18.4184 28.7385 15.5087C28.7385 12.599 27.4351 9.80851 25.1151 7.75105C22.7952 5.69359 19.6487 4.53771 16.3677 4.53771Z" fill="white"/>
<path d="M152.709 12.0531C154.162 12.0531 155.339 11.009 155.339 9.72109C155.339 8.43316 154.162 7.38908 152.709 7.38908C151.257 7.38908 150.08 8.43316 150.08 9.72109C150.08 11.009 151.257 12.0531 152.709 12.0531Z" fill="white"/>
</g>
</svg>
