<svg width="141" height="25" viewBox="0 0 141 25" fill="none" xmlns="http://www.w3.org/2000/svg">
<g opacity="0.6">
<path d="M45.4531 20.2018C44.746 20.2354 44.0465 20.0595 43.4677 19.7026C43.2258 19.5458 43.0312 19.3398 42.9007 19.1024C42.7702 18.8651 42.7078 18.6035 42.7187 18.3402V8.69945C42.7129 8.65864 42.7179 8.6172 42.7332 8.57831C42.7484 8.53941 42.7737 8.50408 42.8069 8.47499C42.8402 8.44591 42.8805 8.42385 42.925 8.41048C42.9695 8.39711 43.0168 8.39279 43.0635 8.39785H45.0608C45.2866 8.39785 45.3936 8.50185 45.3936 8.69945V17.5914C45.3936 17.9866 45.5957 18.1842 46.0118 18.1842C46.1882 18.1906 46.3647 18.1731 46.5349 18.1322C46.7727 18.1322 46.9035 18.1946 46.9154 18.3818L47.0937 19.6818C47.1023 19.7197 47.1015 19.7588 47.0913 19.7964C47.0812 19.834 47.0619 19.8693 47.0349 19.8998C47.0079 19.9304 46.9736 19.9555 46.9346 19.9735C46.8955 19.9915 46.8525 20.002 46.8084 20.0042C46.3709 20.1307 45.9138 20.1973 45.4531 20.2018Z" fill="white"/>
<path d="M56.6878 19.0891C55.6842 19.8145 54.423 20.2113 53.1212 20.2113C51.8194 20.2113 50.5582 19.8145 49.5546 19.0891C48.6725 18.3101 48.1777 17.258 48.1777 16.1615C48.1777 15.065 48.6725 14.0129 49.5546 13.2339C50.5602 12.5123 51.8206 12.1179 53.1212 12.1179C54.4218 12.1179 55.6822 12.5123 56.6878 13.2339C57.5495 14.0201 58.0306 15.0671 58.0306 16.1563C58.0306 17.2455 57.5495 18.2926 56.6878 19.0787V19.0891ZM51.433 17.7163C51.8987 18.0854 52.5047 18.2898 53.1331 18.2898C53.7615 18.2898 54.3674 18.0854 54.8331 17.7163C55.2547 17.2923 55.4868 16.7494 55.4868 16.1875C55.4868 15.6256 55.2547 15.0827 54.8331 14.6587C54.3674 14.2897 53.7615 14.0853 53.1331 14.0853C52.5047 14.0853 51.8987 14.2897 51.433 14.6587C51.0115 15.0827 50.7794 15.6256 50.7794 16.1875C50.7794 16.7494 51.0115 17.2923 51.433 17.7163Z" fill="white"/>
<path d="M69.0281 12.3811C69.2539 12.3811 69.3609 12.4851 69.3609 12.6827V20.1395C69.3817 20.6427 69.274 21.1437 69.0458 21.6061C68.8175 22.0684 68.4744 22.4804 68.0413 22.8123C67.08 23.5293 65.8438 23.9009 64.5817 23.8523C63.4418 23.8873 62.3171 23.615 61.3599 23.0723C60.9512 22.8375 60.6021 22.5317 60.3341 22.1738C60.0662 21.816 59.8853 21.4138 59.8025 20.9923C59.8025 20.7843 59.8025 20.6907 60.1235 20.6907H62.1208C62.2056 20.6932 62.2878 20.7171 62.3574 20.7595C62.427 20.802 62.4811 20.8611 62.5131 20.9299C62.6427 21.2457 62.9009 21.5086 63.2383 21.6683C63.6496 21.8539 64.1072 21.9468 64.5698 21.9387C64.849 21.952 65.1284 21.9166 65.3917 21.8345C65.655 21.7523 65.897 21.6251 66.1035 21.4603C66.2921 21.2878 66.4389 21.0837 66.5349 20.8603C66.6309 20.6368 66.6742 20.3987 66.6622 20.1603V19.5051C65.9471 19.9652 65.0768 20.2031 64.1894 20.1811C63.5684 20.2008 62.9492 20.1106 62.369 19.9158C61.7888 19.721 61.2595 19.4256 60.8131 19.0475C59.956 18.2717 59.4768 17.2351 59.4768 16.1563C59.4768 15.0774 59.956 14.0408 60.8131 13.2651C61.2617 12.8902 61.7916 12.5977 62.3714 12.4048C62.9513 12.2119 63.5694 12.1225 64.1894 12.1419C65.1025 12.1208 65.9962 12.374 66.7217 12.8595V12.6931C66.7162 12.6532 66.721 12.6128 66.7356 12.5747C66.7502 12.5367 66.7743 12.502 66.8062 12.4731C66.8381 12.4442 66.8769 12.4219 66.9199 12.4078C66.9628 12.3937 67.0088 12.3881 67.0546 12.3915L69.0281 12.3811ZM64.4153 18.3299C64.7216 18.3381 65.0262 18.2875 65.3076 18.1815C65.5891 18.0754 65.8405 17.9166 66.044 17.7163C66.4393 17.2697 66.6537 16.721 66.6537 16.1563C66.6537 15.5915 66.4393 15.0428 66.044 14.5963C65.8412 14.3986 65.5913 14.2422 65.312 14.1379C65.0327 14.0337 64.7307 13.9843 64.4272 13.9931C64.1174 13.9845 63.8091 14.035 63.5238 14.1409C63.2385 14.2469 62.9829 14.4058 62.7747 14.6067C62.3368 15.0338 62.1065 15.5934 62.1327 16.1667C62.1113 16.7343 62.3364 17.288 62.7628 17.7163C62.9715 17.9166 63.2272 18.0751 63.5124 18.181C63.7976 18.2869 64.1056 18.3377 64.4153 18.3299Z" fill="white"/>
<path d="M79.6207 19.0891C78.6152 19.8107 77.3548 20.2051 76.0541 20.2051C74.7535 20.2051 73.4931 19.8107 72.4876 19.0891C71.6251 18.3012 71.1436 17.2524 71.1436 16.1615C71.1436 15.0705 71.6251 14.0217 72.4876 13.2339C73.4941 12.5141 74.7541 12.1209 76.0541 12.1209C77.3542 12.1209 78.6142 12.5141 79.6207 13.2339C80.4825 14.02 80.9636 15.0671 80.9636 16.1563C80.9636 17.2454 80.4825 18.2925 79.6207 19.0787V19.0891ZM74.3541 17.7163C74.582 17.9059 74.8507 18.0541 75.1445 18.1523C75.4384 18.2505 75.7516 18.2967 76.066 18.2883C76.3785 18.2953 76.6894 18.2485 76.9812 18.1503C77.2729 18.0522 77.5396 17.9047 77.7661 17.7163C78.1807 17.2894 78.4084 16.7476 78.4084 16.1875C78.4084 15.6273 78.1807 15.0855 77.7661 14.6587C77.5396 14.4702 77.2729 14.3227 76.9812 14.2246C76.6894 14.1264 76.3785 14.0796 76.066 14.0867C75.7516 14.0782 75.4384 14.1244 75.1445 14.2226C74.8507 14.3208 74.582 14.469 74.3541 14.6587C73.9395 15.0855 73.7118 15.6273 73.7118 16.1875C73.7118 16.7476 73.9395 17.2894 74.3541 17.7163Z" fill="white"/>
<path d="M85.2559 10.6131C84.9417 10.8537 84.5382 10.9864 84.1206 10.9864C83.7029 10.9864 83.2995 10.8537 82.9852 10.6131C82.8427 10.4955 82.7292 10.3536 82.6516 10.1962C82.574 10.0389 82.534 9.86928 82.534 9.69789C82.534 9.52651 82.574 9.35693 82.6516 9.19955C82.7292 9.04218 82.8427 8.90032 82.9852 8.78269C83.3027 8.54808 83.7049 8.41937 84.1206 8.41937C84.5362 8.41937 84.9384 8.54808 85.2559 8.78269C85.3984 8.90032 85.5119 9.04218 85.5895 9.19955C85.6671 9.35693 85.7071 9.52651 85.7071 9.69789C85.7071 9.86928 85.6671 10.0389 85.5895 10.1962C85.5119 10.3536 85.3984 10.4955 85.2559 10.6131ZM85.5056 20.2019C84.7989 20.2322 84.1007 20.0566 83.5202 19.7027C83.282 19.5435 83.0908 19.3368 82.9626 19.0998C82.8343 18.8628 82.7728 18.6024 82.7831 18.3403V12.6827C82.7773 12.6419 82.7823 12.6004 82.7976 12.5615C82.8128 12.5227 82.8381 12.4873 82.8713 12.4582C82.9045 12.4292 82.9449 12.4071 82.9894 12.3937C83.0339 12.3804 83.0812 12.376 83.1279 12.3811H85.1252C85.351 12.3811 85.458 12.4851 85.458 12.6827V17.5915C85.458 17.9867 85.6601 18.1843 86.0644 18.1843C86.2446 18.19 86.4249 18.1724 86.5993 18.1323C86.8371 18.1323 86.9679 18.1947 86.9798 18.3819L87.1581 19.6819C87.1667 19.7198 87.1658 19.7589 87.1557 19.7965C87.1456 19.8341 87.1263 19.8693 87.0993 19.8999C87.0723 19.9304 87.038 19.9556 86.999 19.9736C86.9599 19.9916 86.9169 20.0021 86.8728 20.0043C86.4314 20.1314 85.9702 20.1981 85.5056 20.2019Z" fill="white"/>
<path d="M94.5053 12.1315C95.1292 12.1099 95.7516 12.1983 96.3357 12.3912C96.9198 12.5842 97.4536 12.8778 97.9054 13.2547C98.7461 14.044 99.2136 15.0827 99.2136 16.1615C99.2136 17.2403 98.7461 18.279 97.9054 19.0683C97.4558 19.4486 96.9226 19.7451 96.3382 19.9399C95.7538 20.1348 95.1302 20.2239 94.5053 20.2019C93.615 20.2192 92.7426 19.9819 92.0206 19.5259V23.2803C92.0206 23.4779 91.9017 23.5715 91.6759 23.5715H89.6786C89.633 23.579 89.586 23.5766 89.5418 23.5646C89.4975 23.5526 89.4572 23.5313 89.4244 23.5027C89.3916 23.474 89.3673 23.4387 89.3536 23.4C89.3399 23.3613 89.3372 23.3202 89.3457 23.2803V14.7523C89.3597 14.6689 89.3512 14.5838 89.3209 14.5037C89.2906 14.4237 89.2393 14.351 89.1712 14.2914C89.103 14.2318 89.0199 14.1869 88.9284 14.1604C88.8369 14.1339 88.7396 14.1265 88.6443 14.1387H88.2519C87.9904 14.1387 87.8596 14.0555 87.8596 13.8891V12.6619C87.8535 12.586 87.8772 12.5105 87.927 12.448C87.9768 12.3856 88.0495 12.3399 88.1331 12.3187C88.5443 12.1879 88.9795 12.1245 89.417 12.1315C89.8533 12.0977 90.2912 12.1787 90.6746 12.364C91.0579 12.5492 91.3693 12.8304 91.5688 13.1715C91.9518 12.8326 92.4097 12.5656 92.9146 12.3868C93.4195 12.208 93.9607 12.1211 94.5053 12.1315ZM92.6507 17.7163C92.8627 17.9101 93.1173 18.0643 93.3993 18.1697C93.6813 18.2751 93.9847 18.3294 94.2913 18.3294C94.598 18.3294 94.9014 18.2751 95.1834 18.1697C95.4653 18.0643 95.72 17.9101 95.9319 17.7163C96.3785 17.2807 96.6131 16.7098 96.5858 16.1251C96.6169 15.5399 96.3818 14.9678 95.9319 14.5339C95.72 14.3401 95.4653 14.1859 95.1834 14.0805C94.9014 13.9751 94.598 13.9208 94.2913 13.9208C93.9847 13.9208 93.6813 13.9751 93.3993 14.0805C93.1173 14.1859 92.8627 14.3401 92.6507 14.5339C92.2181 14.9755 91.993 15.5441 92.0206 16.1251C91.9965 16.7057 92.2212 17.2732 92.6507 17.7163Z" fill="white"/>
<path d="M104.824 20.2018C103.757 20.2402 102.699 20.0169 101.769 19.557C101.396 19.3605 101.078 19.0929 100.84 18.7742C100.601 18.4556 100.447 18.094 100.39 17.7162C100.39 17.5082 100.473 17.4042 100.735 17.4042H102.482C102.566 17.4071 102.646 17.4299 102.715 17.4703C102.785 17.5107 102.84 17.567 102.875 17.633C103.124 18.1946 103.778 18.4754 104.824 18.4754C105.189 18.49 105.553 18.4257 105.883 18.2882C105.996 18.2433 106.094 18.1721 106.165 18.0824C106.236 17.9926 106.278 17.8876 106.287 17.7786C106.287 17.5082 106.097 17.321 105.716 17.1962C105.265 17.0649 104.798 16.9777 104.325 16.9362C103.765 16.8807 103.209 16.7939 102.661 16.6762C102.128 16.5707 101.643 16.328 101.27 15.9794C101.05 15.7425 100.888 15.4685 100.794 15.1745C100.7 14.8804 100.676 14.5726 100.724 14.2702C100.772 13.9679 100.891 13.6773 101.073 13.4167C101.254 13.1561 101.496 12.931 101.781 12.7554C102.638 12.2779 103.643 12.0453 104.658 12.0898C105.64 12.0608 106.613 12.2734 107.464 12.7034C107.807 12.8734 108.102 13.1082 108.328 13.3906C108.555 13.6731 108.706 13.9961 108.771 14.3362C108.771 14.5442 108.664 14.6482 108.45 14.6482H106.691C106.617 14.6521 106.543 14.6363 106.48 14.6029C106.416 14.5695 106.365 14.52 106.334 14.461C106.217 14.2147 105.995 14.0174 105.716 13.9098C105.401 13.7656 105.049 13.6941 104.694 13.7018C104.345 13.6853 103.998 13.7461 103.683 13.8786C103.572 13.916 103.477 13.9816 103.409 14.0668C103.341 14.1521 103.304 14.2532 103.303 14.357C103.31 14.4993 103.37 14.6356 103.473 14.746C103.575 14.8565 103.716 14.9352 103.873 14.9706C104.33 15.1212 104.805 15.2258 105.288 15.2826C105.844 15.3466 106.396 15.4369 106.941 15.553C107.473 15.6585 107.958 15.9012 108.332 16.2498C108.531 16.4419 108.686 16.6667 108.786 16.9112C108.886 17.1558 108.929 17.4153 108.914 17.6746C108.924 18.0341 108.828 18.3898 108.634 18.707C108.44 19.0242 108.156 19.292 107.809 19.4842C106.92 19.9831 105.879 20.2334 104.824 20.2018Z" fill="white"/>
<path d="M121.48 19.6819C121.487 19.7188 121.485 19.7565 121.475 19.7928C121.465 19.8292 121.447 19.8633 121.421 19.8934C121.396 19.9234 121.364 19.9487 121.327 19.9677C121.29 19.9868 121.249 19.9992 121.207 20.0043C120.773 20.1282 120.32 20.1948 119.864 20.2019C119.412 20.2428 118.955 20.181 118.539 20.0225C118.122 19.864 117.76 19.6141 117.486 19.2971C116.646 19.9286 115.56 20.2527 114.454 20.2019C113.941 20.2225 113.428 20.149 112.949 19.9861C112.47 19.8231 112.035 19.5742 111.672 19.2555C111.312 18.9215 111.033 18.5273 110.851 18.0966C110.669 17.666 110.589 17.2076 110.614 16.7491V12.6827C110.614 12.4851 110.721 12.3811 110.947 12.3811H112.944C113.17 12.3811 113.277 12.4851 113.277 12.6827V16.4371C113.256 16.9048 113.438 17.3622 113.789 17.7163C113.963 17.8784 114.176 18.006 114.412 18.0903C114.647 18.1746 114.901 18.2137 115.156 18.2051C115.416 18.215 115.676 18.1797 115.921 18.1012C116.166 18.0226 116.391 17.9024 116.582 17.7475C116.763 17.5841 116.904 17.39 116.996 17.1772C117.088 16.9643 117.13 16.7372 117.117 16.5099V12.6827C117.117 12.4851 117.224 12.3811 117.45 12.3811H119.471C119.697 12.3811 119.804 12.4851 119.804 12.6827V17.5811C119.804 17.9867 120.006 18.1843 120.399 18.1843C120.583 18.1905 120.767 18.173 120.945 18.1323C120.99 18.1212 121.038 18.1192 121.084 18.1265C121.129 18.1337 121.173 18.1499 121.211 18.1739C121.248 18.1979 121.279 18.2291 121.301 18.2651C121.323 18.3012 121.336 18.3411 121.338 18.3819L121.48 19.6819Z" fill="white"/>
<path d="M140.371 19.6819C140.382 19.7191 140.383 19.758 140.374 19.7956C140.366 19.8332 140.348 19.8687 140.321 19.8995C140.295 19.9304 140.262 19.9557 140.223 19.9739C140.184 19.992 140.142 20.0024 140.098 20.0043C139.656 20.13 139.195 20.1966 138.731 20.2019C138.024 20.2338 137.325 20.0581 136.745 19.7027C136.495 19.5505 136.291 19.3465 136.152 19.1088C136.013 18.8712 135.943 18.6072 135.949 18.3403V15.8963C135.974 15.4299 135.795 14.9727 135.449 14.6171C135.283 14.4545 135.077 14.3264 134.846 14.2419C134.616 14.1573 134.367 14.1186 134.118 14.1283C133.893 14.1209 133.669 14.1582 133.463 14.2375C133.257 14.3167 133.075 14.4359 132.929 14.5859C132.615 14.9344 132.455 15.3699 132.477 15.8131V19.6507C132.477 19.8483 132.37 19.9523 132.144 19.9523H130.135C130.089 19.9574 130.041 19.953 129.997 19.9397C129.952 19.9263 129.912 19.9042 129.879 19.8751C129.845 19.8461 129.82 19.8107 129.805 19.7718C129.79 19.7329 129.785 19.6915 129.79 19.6507V15.8963C129.816 15.435 129.652 14.981 129.327 14.6171C129.182 14.4642 129 14.3412 128.795 14.2567C128.589 14.1722 128.365 14.1284 128.138 14.1283C127.895 14.1197 127.654 14.1561 127.428 14.2349C127.203 14.3138 126.999 14.4334 126.83 14.5859C126.49 14.9233 126.315 15.364 126.343 15.8131V19.6507C126.349 19.6915 126.344 19.7329 126.328 19.7718C126.313 19.8107 126.288 19.8461 126.255 19.8751C126.221 19.9042 126.181 19.9263 126.136 19.9397C126.092 19.953 126.045 19.9574 125.998 19.9523H124.06C123.834 19.9523 123.727 19.8483 123.727 19.6507V14.7523C123.741 14.6689 123.733 14.5838 123.702 14.5037C123.672 14.4237 123.621 14.351 123.553 14.2914C123.485 14.2317 123.401 14.1869 123.31 14.1604C123.218 14.1339 123.121 14.1265 123.026 14.1387H122.634C122.372 14.1387 122.241 14.0555 122.241 13.8891V12.6619C122.235 12.586 122.259 12.5105 122.309 12.448C122.358 12.3856 122.431 12.3399 122.515 12.3187C122.926 12.1879 123.361 12.1245 123.799 12.1315C124.219 12.1002 124.64 12.1734 125.015 12.3427C125.389 12.512 125.701 12.7705 125.915 13.0883C126.316 12.7557 126.791 12.4991 127.311 12.3345C127.83 12.1699 128.383 12.1008 128.934 12.1315C129.47 12.1086 130.004 12.1965 130.494 12.3881C130.983 12.5796 131.414 12.8694 131.752 13.2339C132.145 12.8598 132.629 12.5669 133.168 12.3762C133.706 12.1856 134.287 12.102 134.867 12.1315C135.386 12.1103 135.904 12.1834 136.389 12.3463C136.874 12.5092 137.315 12.7583 137.684 13.0779C138.046 13.4112 138.326 13.8052 138.508 14.2361C138.689 14.6669 138.769 15.1256 138.742 15.5843V17.5915C138.742 17.9867 138.945 18.1843 139.325 18.1843C139.509 18.1918 139.694 18.1743 139.872 18.1323C140.118 18.1323 140.248 18.2155 140.264 18.3819L140.371 19.6819Z" fill="white"/>
<path d="M0.96619 11.0291C1.84329 7.94517 3.87463 5.20658 6.73678 3.24941C9.59892 1.29224 13.1273 0.229004 16.7601 0.229004C20.3929 0.229004 23.9213 1.29224 26.7835 3.24941C29.6456 5.20658 31.677 7.94517 32.5541 11.0291H31.1274C28.7208 10.9981 26.3635 11.6273 24.3866 12.8283C24.2725 12.9006 24.1534 12.9666 24.03 13.0259H23.8635C23.7401 12.9666 23.621 12.9006 23.5069 12.8283C21.5124 11.6551 19.1635 11.0285 16.7601 11.0285C14.3567 11.0285 12.0078 11.6551 10.0134 12.8283C9.89928 12.9006 9.78017 12.9666 9.65672 13.0259H9.49028C9.36683 12.9666 9.24771 12.9006 9.13362 12.8283C7.15672 11.6273 4.79943 10.9981 2.39282 11.0291H0.96619ZM28.5595 17.5499C29.2918 17.051 30.1995 16.79 31.1274 16.8115H33.0415V13.4731H31.1274C29.493 13.4558 27.896 13.9008 26.5741 14.7419C25.8302 15.2217 24.9304 15.4805 24.0062 15.4805C23.082 15.4805 22.1821 15.2217 21.4383 14.7419C20.0829 13.9165 18.471 13.4741 16.8196 13.4741C15.1681 13.4741 13.5563 13.9165 12.2009 14.7419C11.457 15.2217 10.5571 15.4805 9.63294 15.4805C8.70877 15.4805 7.80888 15.2217 7.06501 14.7419C5.72684 13.8901 4.1069 13.4445 2.45226 13.4731H0.47876V16.8115H2.39282C3.32073 16.79 4.22839 17.051 4.96074 17.5499C6.31367 18.3758 7.92372 18.8187 9.5735 18.8187C11.2233 18.8187 12.8333 18.3758 14.1863 17.5499C14.9195 17.0525 15.8266 16.7917 16.7542 16.8115C17.6824 16.7882 18.5907 17.0494 19.3221 17.5499C20.6775 18.3753 22.2893 18.8178 23.9408 18.8178C25.5923 18.8178 27.2041 18.3753 28.5595 17.5499ZM28.5595 23.5195C29.2918 23.0206 30.1995 22.7596 31.1274 22.7811H33.0415V19.4427H31.1274C29.493 19.4254 27.896 19.8705 26.5741 20.7115C25.8302 21.1913 24.9304 21.4501 24.0062 21.4501C23.082 21.4501 22.1821 21.1913 21.4383 20.7115C20.0829 19.8861 18.471 19.4437 16.8196 19.4437C15.1681 19.4437 13.5563 19.8861 12.2009 20.7115C11.457 21.1913 10.5571 21.4501 9.63294 21.4501C8.70877 21.4501 7.80888 21.1913 7.06501 20.7115C5.72684 19.8597 4.1069 19.4141 2.45226 19.4427H0.47876V22.7811H2.39282C3.32073 22.7596 4.22839 23.0206 4.96074 23.5195C6.31367 24.3454 7.92372 24.7883 9.5735 24.7883C11.2233 24.7883 12.8333 24.3454 14.1863 23.5195C14.9195 23.0221 15.8266 22.7613 16.7542 22.7811C17.6824 22.7578 18.5907 23.019 19.3221 23.5195C20.6775 24.3449 22.2893 24.7874 23.9408 24.7874C25.5923 24.7874 27.2041 24.3449 28.5595 23.5195Z" fill="white"/>
</g>
</svg>
