<svg width="158" height="29" viewBox="0 0 158 29" fill="none" xmlns="http://www.w3.org/2000/svg">
<g opacity="0.6">
<path d="M20.1921 12.7969C19.7416 13.1973 19.3966 13.6805 19.1816 14.212C18.9667 14.7436 18.8871 15.3105 18.9486 15.8724L18.9272 15.8535C18.9904 16.5148 18.8894 17.1804 18.6313 17.8037C18.3732 18.427 17.9642 18.9931 17.4329 19.4624C16.9015 19.9317 16.2605 20.2929 15.5548 20.5209C14.849 20.7488 14.0954 20.838 13.3466 20.7822L13.368 20.8011C12.4723 20.7274 11.5727 20.8996 10.7918 21.2941C10.0109 21.6885 9.3868 22.2861 9.00454 23.0053C8.62228 23.7246 8.50049 24.5304 8.65578 25.313C8.81106 26.0956 9.23586 26.8168 9.87226 27.3784C10.5087 27.9399 11.3257 28.3144 12.2119 28.4509C13.0981 28.5873 14.0104 28.479 14.8244 28.1408C15.6384 27.8025 16.3145 27.2508 16.7604 26.5607C17.2063 25.8707 17.4004 25.076 17.3163 24.285L17.3389 24.3039C17.2756 23.6425 17.3766 22.977 17.6347 22.3537C17.8928 21.7303 18.3018 21.1643 18.8332 20.695C19.3646 20.2257 20.0055 19.8644 20.7112 19.6365C21.417 19.4085 22.1706 19.3194 22.9194 19.3752L22.8968 19.3563C23.6285 19.4144 24.365 19.3084 25.0379 19.0482C25.7109 18.788 26.2986 18.382 26.7466 17.8678C27.1946 17.3536 27.4884 16.7478 27.6007 16.1066C27.7131 15.4654 27.6403 14.8095 27.3892 14.1998C27.1381 13.59 26.7168 13.0461 26.1643 12.6185C25.6119 12.1908 24.9461 11.8932 24.2287 11.7533C23.5114 11.6134 22.7656 11.6357 22.0606 11.8182C21.3556 12.0006 20.7142 12.3372 20.1957 12.7969H20.1921Z" fill="white"/>
<path d="M11.4218 18.3251L11.3992 18.3062C12.0357 18.3629 12.6784 18.2939 13.2809 18.1043C13.8835 17.9146 14.4308 17.6091 14.8833 17.2098C15.3358 16.8105 15.6821 16.3273 15.8972 15.7953C16.1124 15.2633 16.191 14.6957 16.1274 14.1335L16.1499 14.1524C16.0867 13.4911 16.1877 12.8255 16.4458 12.2022C16.7039 11.5789 17.1129 11.0128 17.6443 10.5435C18.1756 10.0742 18.8166 9.71297 19.5223 9.48502C20.2281 9.25707 20.9817 9.1679 21.7305 9.22372L21.7079 9.20483C22.6037 9.27913 23.5036 9.10756 24.285 8.71353C25.0663 8.31951 25.691 7.7222 26.0738 7.00309C26.4566 6.28398 26.579 5.47807 26.4242 4.69529C26.2693 3.9125 25.8449 3.19096 25.2087 2.62907C24.5725 2.06717 23.7555 1.69229 22.8692 1.55555C21.9829 1.41881 21.0704 1.52687 20.2562 1.86499C19.4419 2.20311 18.7656 2.75483 18.3195 3.44489C17.8734 4.13496 17.6791 4.92977 17.7632 5.72093L17.7418 5.70097C17.8053 6.36236 17.7044 7.028 17.4464 7.65141C17.1884 8.27482 16.7794 8.84096 16.248 9.31031C15.7166 9.77965 15.0755 10.1409 14.3697 10.3688C13.6638 10.5966 12.9102 10.6857 12.1613 10.6297L12.1827 10.6496C11.5463 10.593 10.9035 10.662 10.301 10.8516C9.69843 11.0412 9.15113 11.3468 8.69865 11.7461C8.24617 12.1454 7.89983 12.6285 7.68467 13.1606C7.46952 13.6926 7.39092 14.2602 7.45457 14.8223L7.43317 14.8034C7.49617 15.4647 7.39506 16.1302 7.13689 16.7534C6.87872 17.3767 6.4697 17.9427 5.93838 18.4119C5.40705 18.8812 4.76621 19.2424 4.06054 19.4705C3.35488 19.6985 2.60138 19.7878 1.85262 19.7321L1.87402 19.751C0.97823 19.6767 0.0782967 19.8483 -0.703033 20.2423C-1.48436 20.6364 -2.10905 21.2337 -2.49189 21.9528C-2.87472 22.6719 -2.99707 23.4778 -2.84225 24.2606C-2.68742 25.0434 -2.26296 25.7649 -1.62675 26.3268C-0.990546 26.8887 -0.173573 27.2636 0.712737 27.4003C1.59905 27.537 2.51154 27.429 3.32576 27.0909C4.13997 26.7528 4.81628 26.201 5.26241 25.511C5.70855 24.8209 5.90281 24.0261 5.81868 23.2349L5.84127 23.2538C5.77806 22.5925 5.87903 21.9269 6.13713 21.3036C6.39522 20.6803 6.80423 20.1142 7.3356 19.6449C7.86697 19.1756 8.50791 18.8144 9.21367 18.5864C9.91943 18.3585 10.673 18.2693 11.4218 18.3251Z" fill="white"/>
<path d="M3.45408 16.2178C3.90468 15.8175 4.24968 15.3343 4.46443 14.8027C4.67919 14.2711 4.75841 13.7041 4.69644 13.1424L4.71903 13.1613C4.65577 12.4997 4.75679 11.834 5.01502 11.2105C5.27326 10.587 5.68248 10.0208 6.21412 9.55147C6.74576 9.08213 7.387 8.72095 8.09305 8.49314C8.79911 8.26534 9.55295 8.17641 10.302 8.23256L10.2794 8.21366C11.1749 8.28775 12.0744 8.11609 12.8554 7.72209C13.6363 7.32809 14.2607 6.73093 14.6433 6.01205C15.0259 5.29316 15.1481 4.48754 14.9933 3.70505C14.8385 2.92256 14.4142 2.2013 13.7782 1.63961C13.1422 1.07792 12.3256 0.703157 11.4396 0.566422C10.5536 0.429687 9.64145 0.537638 8.82749 0.875553C8.01353 1.21347 7.33739 1.7649 6.89128 2.45464C6.44517 3.14439 6.25081 3.93888 6.33471 4.72976L6.31331 4.71086C6.37652 5.3722 6.27555 6.03776 6.01745 6.66109C5.75936 7.28441 5.35035 7.85048 4.81898 8.31978C4.28761 8.78908 3.64667 9.15031 2.94091 9.37826C2.23515 9.60621 1.48157 9.69538 0.73276 9.63956L0.754159 9.65846C0.0224953 9.60051 -0.713893 9.70661 -1.38677 9.96692C-2.05965 10.2272 -2.64724 10.6333 -3.0951 11.1476C-3.54296 11.6619 -3.83659 12.2677 -3.94879 12.9089C-4.06099 13.5501 -3.98813 14.2059 -3.73695 14.8156C-3.48577 15.4253 -3.06441 15.9691 -2.51191 16.3967C-1.9594 16.8242 -1.29364 17.1217 -0.576301 17.2616C0.141034 17.4014 0.886727 17.379 1.59168 17.1966C2.29663 17.0141 2.93804 16.6775 3.45645 16.2178H3.45408Z" fill="white"/>
<path d="M40.2816 5.74508H43.8125V20.9207H40.2816V5.74508Z" fill="white"/>
<path d="M45.8122 15.7243C45.8073 14.6337 46.1689 13.5664 46.8514 12.6575C47.5338 11.7486 48.5063 11.039 49.6457 10.6186C50.7851 10.1983 52.0401 10.086 53.2518 10.2961C54.4635 10.5062 55.5774 11.0291 56.4523 11.7987C57.3272 12.5684 57.9237 13.55 58.1665 14.6193C58.4092 15.6886 58.2871 16.7975 57.8157 17.8055C57.3443 18.8134 56.5448 19.6752 55.5185 20.2815C54.4921 20.8879 53.2851 21.2116 52.0502 21.2116C51.2306 21.2198 50.4172 21.0837 49.6578 20.8111C48.8984 20.5386 48.2081 20.1351 47.6273 19.6242C47.0466 19.1133 46.5869 18.5052 46.2752 17.8356C45.9636 17.166 45.8062 16.4483 45.8122 15.7243ZM54.7573 15.7243C54.7426 15.2542 54.5713 14.7984 54.2648 14.4138C53.9584 14.0293 53.5304 13.733 53.0343 13.5621C52.5383 13.3912 51.9962 13.3532 51.4758 13.4529C50.9555 13.5526 50.48 13.7856 50.1087 14.1227C49.7375 14.4598 49.4869 14.8861 49.3885 15.3483C49.2901 15.8104 49.3481 16.2879 49.5553 16.7211C49.7624 17.1543 50.1096 17.524 50.5534 17.7839C50.9971 18.0438 51.5178 18.1824 52.0502 18.1823C52.4149 18.1909 52.7776 18.1327 53.1155 18.0113C53.4534 17.89 53.7592 17.7081 54.0135 17.4771C54.2678 17.2462 54.4652 16.9712 54.5933 16.6695C54.7213 16.3678 54.7771 16.046 54.7573 15.7243Z" fill="white"/>
<path d="M72.3608 10.5268V20.3968C72.3608 23.8891 69.2769 25.3654 66.1466 25.3654C65.0444 25.4383 63.9409 25.2416 62.9569 24.7971C61.9729 24.3526 61.1465 23.6773 60.5684 22.8454L63.581 21.3072C63.824 21.7408 64.2112 22.0986 64.6907 22.3326C65.1702 22.5666 65.7192 22.6656 66.2643 22.6165C66.6126 22.6591 66.9673 22.632 67.3022 22.5372C67.6371 22.4424 67.9436 22.2823 68.1989 22.0688C68.4543 21.8553 68.652 21.5938 68.7775 21.3036C68.9029 21.0135 68.9529 20.7021 68.9238 20.3926V19.4424C68.5103 19.8892 67.984 20.2442 67.3871 20.4788C66.7902 20.7135 66.1394 20.8214 65.4868 20.7937C63.9339 20.7504 62.461 20.1752 61.3798 19.1898C60.2987 18.2043 59.6941 16.886 59.6941 15.5138C59.6941 14.1416 60.2987 12.8232 61.3798 11.8378C62.461 10.8523 63.9339 10.2771 65.4868 10.2339C66.1394 10.2062 66.7902 10.314 67.3871 10.5487C67.984 10.7834 68.5103 11.1384 68.9238 11.5852V10.5247L72.3608 10.5268ZM68.925 15.5154C68.9487 15.0128 68.8016 14.5154 68.5026 14.0873C68.2036 13.6592 67.7663 13.3199 67.2471 13.1131C66.7279 12.9064 66.1506 12.8415 65.5893 12.927C65.028 13.0125 64.5086 13.2443 64.0978 13.5928C63.687 13.9412 63.4037 14.3902 63.2843 14.882C63.1649 15.3739 63.2149 15.886 63.4278 16.3525C63.6407 16.8191 64.0069 17.2186 64.4791 17.4998C64.9514 17.781 65.5081 17.931 66.0776 17.9303C66.4486 17.9532 66.8209 17.9072 67.1705 17.7953C67.5202 17.6833 67.8394 17.508 68.1076 17.2805C68.3759 17.053 68.5872 16.7784 68.7279 16.4744C68.8687 16.1703 68.9358 15.8437 68.925 15.5154Z" fill="white"/>
<path d="M74.3604 15.7243C74.3555 14.6337 74.7171 13.5664 75.3996 12.6575C76.082 11.7486 77.0545 11.039 78.1939 10.6186C79.3333 10.1983 80.5883 10.086 81.8 10.2961C83.0117 10.5062 84.1256 11.0291 85.0005 11.7987C85.8754 12.5684 86.4719 13.55 86.7147 14.6193C86.9574 15.6886 86.8353 16.7975 86.3639 17.8055C85.8925 18.8134 85.093 19.6752 84.0667 20.2815C83.0403 20.8879 81.8332 21.2116 80.5984 21.2116C79.7787 21.2198 78.9654 21.0837 78.206 20.8111C77.4466 20.5386 76.7563 20.1351 76.1755 19.6242C75.5947 19.1133 75.1351 18.5052 74.8234 17.8356C74.5118 17.166 74.3544 16.4483 74.3604 15.7243ZM83.3055 15.7243C83.2907 15.2542 83.1195 14.7984 82.813 14.4138C82.5066 14.0293 82.0786 13.733 81.5825 13.5621C81.0865 13.3912 80.5444 13.3532 80.024 13.4529C79.5037 13.5526 79.0282 13.7856 78.6569 14.1227C78.2857 14.4598 78.0352 14.8861 77.9367 15.3483C77.8383 15.8104 77.8963 16.2879 78.1035 16.7211C78.3106 17.1543 78.6578 17.524 79.1016 17.7839C79.5453 18.0438 80.066 18.1824 80.5984 18.1823C80.9631 18.1909 81.3258 18.1327 81.6637 18.0113C82.0016 17.89 82.3074 17.7081 82.5617 17.4771C82.816 17.2462 83.0134 16.9712 83.1415 16.6695C83.2695 16.3678 83.3253 16.046 83.3055 15.7243Z" fill="white"/>
<path d="M88.483 7.74114C88.483 7.37107 88.6073 7.00931 88.84 6.70161C89.0728 6.39391 89.4037 6.15408 89.7908 6.01246C90.1779 5.87084 90.6039 5.83379 91.0149 5.90599C91.4258 5.97818 91.8033 6.15639 92.0996 6.41807C92.3959 6.67975 92.5977 7.01314 92.6794 7.3761C92.7612 7.73906 92.7192 8.11527 92.5589 8.45717C92.3985 8.79907 92.127 9.0913 91.7786 9.2969C91.4302 9.50249 91.0206 9.61224 90.6016 9.61224C90.0414 9.60731 89.5058 9.4086 89.1097 9.05876C88.7136 8.70892 88.4886 8.23586 88.483 7.74114ZM88.8397 10.5268H92.3718V20.9218H88.8349L88.8397 10.5268Z" fill="white"/>
<path d="M107.618 15.7243C107.659 16.4113 107.545 17.0986 107.284 17.7468C107.023 18.3949 106.62 18.9911 106.097 19.5011C105.574 20.0111 104.942 20.4247 104.238 20.7182C103.533 21.0118 102.77 21.1794 101.992 21.2116C101.338 21.2431 100.684 21.1456 100.077 20.9263C99.471 20.7069 98.9275 20.3711 98.4862 19.9432V25.0787H94.9553V10.5268H98.4862V11.5033C98.9277 11.0757 99.4713 10.7402 100.078 10.521C100.684 10.3018 101.338 10.2044 101.992 10.2359C102.77 10.2679 103.534 10.4355 104.238 10.7291C104.943 11.0226 105.575 11.4364 106.098 11.9465C106.621 12.4566 107.024 13.053 107.285 13.7013C107.546 14.3496 107.659 15.0372 107.618 15.7243ZM104.087 15.7243C104.073 15.2378 103.897 14.7657 103.581 14.3671C103.265 13.9685 102.823 13.6611 102.31 13.4833C101.797 13.3056 101.236 13.2654 100.697 13.3678C100.159 13.4703 99.6662 13.7107 99.2815 14.0591C98.8968 14.4075 98.637 14.8484 98.5347 15.3266C98.4323 15.8048 98.4919 16.299 98.7059 16.7474C98.92 17.1958 99.2791 17.5785 99.7383 17.8475C100.197 18.1166 100.736 18.2601 101.287 18.26C101.665 18.2749 102.043 18.219 102.395 18.0959C102.747 17.9729 103.066 17.7855 103.33 17.5461C103.595 17.3067 103.799 17.0206 103.929 16.7066C104.06 16.3927 104.113 16.0579 104.087 15.7243Z" fill="white"/>
<path d="M118.514 17.8023C118.514 20.1931 116.161 21.2116 113.619 21.2116C112.592 21.2938 111.561 21.1019 110.659 20.6609C109.757 20.2199 109.025 19.55 108.558 18.7378L111.617 17.1996C111.741 17.575 112.007 17.9016 112.37 18.1248C112.734 18.348 113.173 18.4543 113.615 18.426C114.461 18.426 114.885 18.1971 114.885 17.7823C114.885 16.6378 109.094 17.2416 109.094 13.6453C109.094 11.3784 111.261 10.236 113.708 10.236C114.629 10.2102 115.54 10.403 116.347 10.7942C117.154 11.1853 117.828 11.7605 118.297 12.4599L115.285 13.8942C115.153 13.6219 114.933 13.39 114.653 13.2273C114.372 13.0647 114.044 12.9785 113.708 12.9796C113.096 12.9796 112.719 13.1896 112.719 13.5613C112.724 14.7468 118.514 13.9561 118.514 17.8023Z" fill="white"/>
<path d="M131.412 10.5268V20.9218H127.881V19.9443C127.474 20.3756 126.956 20.7155 126.371 20.936C125.787 21.1565 125.151 21.2513 124.516 21.2127C122.139 21.2127 120.118 19.7164 120.118 16.9077V10.5268H123.649V16.4509C123.619 16.6985 123.651 16.9488 123.742 17.1844C123.833 17.4199 123.981 17.6352 124.176 17.815C124.371 17.9949 124.608 18.1352 124.87 18.226C125.133 18.3168 125.414 18.356 125.696 18.3409C126.99 18.3409 127.884 17.6763 127.884 16.2V10.53L131.412 10.5268Z" fill="white"/>
<path d="M151.658 14.5389V20.9208H148.127V14.8087C148.127 13.7692 147.563 13.1046 146.433 13.1046C145.256 13.1046 144.597 13.8323 144.597 15.0587V20.9208H141.067V14.8087C141.067 13.7692 140.502 13.1046 139.371 13.1046C138.194 13.1046 137.536 13.8323 137.536 15.0587V20.9208H134.005V10.5258H137.536V11.4813C137.902 11.0574 138.382 10.7212 138.933 10.5035C139.484 10.2858 140.088 10.1935 140.69 10.2349C141.294 10.2088 141.896 10.3214 142.436 10.5618C142.976 10.8021 143.437 11.1619 143.773 11.6062C144.164 11.1414 144.682 10.7718 145.279 10.532C145.876 10.2922 146.532 10.19 147.186 10.2349C149.888 10.236 151.658 11.9401 151.658 14.5389Z" fill="white"/>
<path d="M154.645 10.4628C156.092 10.4628 157.265 9.42667 157.265 8.14857C157.265 6.87048 156.092 5.83438 154.645 5.83438C153.198 5.83438 152.025 6.87048 152.025 8.14857C152.025 9.42667 153.198 10.4628 154.645 10.4628Z" fill="white"/>
</g>
</svg>
